<svg height="512pt" viewBox="0 0 512 512" width="512pt" xmlns="http://www.w3.org/2000/svg" xmlns:xlink="http://www.w3.org/1999/xlink"><linearGradient id="a" gradientUnits="userSpaceOnUse" x1="74.9807" x2="437.0193" y1="74.9807" y2="437.0193"><stop offset="0" stop-color="#0065a3"/><stop offset="1" stop-color="#005285"/></linearGradient><linearGradient id="b" gradientUnits="userSpaceOnUse" x1="120.7824" x2="175.6232" y1="205.8638" y2="260.7046"><stop offset="0" stop-color="#4ad2f5"/><stop offset="1" stop-color="#00abe9"/></linearGradient><linearGradient id="c" gradientUnits="userSpaceOnUse" x1="68.2472" x2="379.5028" y1="132.4972" y2="443.7528"><stop offset="0" stop-color="#ff9f00"/><stop offset="1" stop-color="#f77e00"/></linearGradient><path d="m512 256c0 141.386719-114.613281 256-256 256s-256-114.613281-256-256 114.613281-256 256-256 256 114.613281 256 256zm0 0" fill="url(#a)"/><path d="m438.757812 234.582031v21.417969l-112.296874 21.417969-49.046876-7.28125-97.085937-14.136719v-21.417969c0-23.558593 19.277344-42.832031 42.832031-42.832031h172.761719c23.558594 0 42.835937 19.273438 42.835937 42.832031zm0 0" fill="#deecf1"/><path d="m180.328125 256h-64.25v-32.125c0-17.742188 14.382813-32.125 32.125-32.125s32.125 14.382812 32.125 32.125zm0 0" fill="url(#b)"/><path d="m116.078125 256v-128.5h-42.835937v257h42.835937v-42.832031h279.84375v42.832031h42.835937v-128.5zm0 0" fill="url(#c)"/></svg>