<svg xmlns="http://www.w3.org/2000/svg" xmlns:xlink="http://www.w3.org/1999/xlink" xml:space="preserve" version="1.1" style="shape-rendering:geometricPrecision;text-rendering:geometricPrecision;image-rendering:optimizeQuality;" viewBox="0 0 244 245" x="0px" y="0px" fill-rule="evenodd" clip-rule="evenodd"><defs><style type="text/css">
   
    .fil0 {fill:black}
   
  </style></defs><g><path class="fil0" d="M20 10c0,25 0,51 0,76 64,0 128,0 192,0 17,0 32,14 32,32 0,11 0,21 0,32 0,12 0,25 0,37 0,12 -17,12 -17,0 0,-12 0,-25 0,-37 -69,0 -138,0 -207,0 0,12 0,24 0,36 0,13 -20,13 -20,0 0,-59 0,-118 0,-176 0,-13 20,-13 20,0zm35 17c13,0 24,11 24,24 0,13 -11,24 -24,24 -13,0 -24,-11 -24,-24 0,-13 11,-24 24,-24zm33 2l111 0c13,0 24,11 24,24l0 25 -135 0 0 -49z"/></g><text x="0" y="211" fill="#000000" font-size="5px" font-weight="bold" font-family="'Helvetica Neue', Helvetica, Arial-Unicode, Arial, Sans-serif">Created by anam</text><text x="0" y="216" fill="#000000" font-size="5px" font-weight="bold" font-family="'Helvetica Neue', Helvetica, Arial-Unicode, Arial, Sans-serif">from the Noun Project</text></svg>