<svg height="512pt" viewBox="0 -104 512 512" width="512pt" xmlns="http://www.w3.org/2000/svg"><path d="m256 120h184v56h-184zm0 0" fill="#754c29"/><path d="m72 120h368v-56h32v-40c0-8.835938-7.164062-16-16-16h-400c-8.835938 0-16 7.164062-16 16v40h32zm272-72c8.835938 0 16 7.164062 16 16s-7.164062 16-16 16-16-7.164062-16-16 7.164062-16 16-16zm-176 0c8.835938 0 16 7.164062 16 16s-7.164062 16-16 16-16-7.164062-16-16 7.164062-16 16-16zm0 0" fill="#603913"/><path d="m72 120h184v56h-184zm0 0" fill="#754c29"/><path d="m440 64v112h-368v-112h-64v176h496v-176zm0 0" fill="#603913"/><g fill="#acabb1"><path d="m184 64c0 8.835938-7.164062 16-16 16s-16-7.164062-16-16 7.164062-16 16-16 16 7.164062 16 16zm0 0"/><path d="m360 64c0 8.835938-7.164062 16-16 16s-16-7.164062-16-16 7.164062-16 16-16 16 7.164062 16 16zm0 0"/><path d="m40 240h32v56h-32zm0 0"/><path d="m440 240h32v56h-32zm0 0"/></g><path d="m504 56h-24v-32c0-13.253906-10.746094-24-24-24h-400c-13.253906 0-24 10.746094-24 24v32h-24c-4.417969 0-8 3.582031-8 8v176c0 4.417969 3.582031 8 8 8h24v48c0 4.417969 3.582031 8 8 8h32c4.417969 0 8-3.582031 8-8v-48h352v48c0 4.417969 3.582031 8 8 8h32c4.417969 0 8-3.582031 8-8v-48h24c4.417969 0 8-3.582031 8-8v-176c0-4.417969-3.582031-8-8-8zm-456-32c0-4.417969 3.582031-8 8-8h400c4.417969 0 8 3.582031 8 8v32h-24c-4.417969 0-8 3.582031-8 8v48h-352v-48c0-4.417969-3.582031-8-8-8h-24zm32 144v-40h168v40zm184-40h168v40h-168zm-200 160h-16v-40h16zm400 0h-16v-40h16zm32-56h-480v-160h48v104c0 4.417969 3.582031 8 8 8h368c4.417969 0 8-3.582031 8-8v-104h48zm0 0" fill="#231f20"/><path d="m168 88c13.253906 0 24-10.746094 24-24s-10.746094-24-24-24-24 10.746094-24 24 10.746094 24 24 24zm0-32c4.417969 0 8 3.582031 8 8s-3.582031 8-8 8-8-3.582031-8-8 3.582031-8 8-8zm0 0" fill="#231f20"/><path d="m344 88c13.253906 0 24-10.746094 24-24s-10.746094-24-24-24-24 10.746094-24 24 10.746094 24 24 24zm0-32c4.417969 0 8 3.582031 8 8s-3.582031 8-8 8-8-3.582031-8-8 3.582031-8 8-8zm0 0" fill="#231f20"/></svg>