<svg xmlns="http://www.w3.org/2000/svg" xmlns:xlink="http://www.w3.org/1999/xlink" version="1.1" x="0px" y="0px" viewBox="0 0 100 125" enable-background="new 0 0 100 100" xml:space="preserve"><g><path d="M24.601,47.626v5.433c0,0.222,0.186,0.407,0.406,0.407h49.986c0.221,0,0.406-0.186,0.406-0.407v-5.433   c0-6.047,4.512-11.007,10.332-11.812v-6.37c0-4.058-3.301-7.361-7.355-7.361H21.627c-4.058,0-7.361,3.303-7.361,7.361v6.37   C20.089,36.62,24.601,41.58,24.601,47.626z"/><path d="M87.368,38.922c-4.796,0-8.697,3.905-8.697,8.705v5.433c0,2.031-1.65,3.682-3.681,3.682H25.007   c-2.031,0-3.681-1.65-3.681-3.682v-5.433c0-4.8-3.901-8.705-8.698-8.705s-8.698,3.905-8.698,8.705v5.433   c0,9.111,5.826,16.869,13.936,19.805c0.339,2.846,2.731,5.053,5.663,5.053c2.479,0,4.566-1.58,5.369-3.78h42.203   c0.8,2.2,2.891,3.78,5.366,3.78c2.936,0,5.324-2.207,5.663-5.053c8.112-2.936,13.938-10.693,13.938-19.805v-5.433   C96.069,42.827,92.165,38.922,87.368,38.922z"/></g><text x="0" y="115" fill="#000000" font-size="5px" font-weight="bold" font-family="'Helvetica Neue', Helvetica, Arial-Unicode, Arial, Sans-serif">Created by Diego Naive</text><text x="0" y="120" fill="#000000" font-size="5px" font-weight="bold" font-family="'Helvetica Neue', Helvetica, Arial-Unicode, Arial, Sans-serif">from the Noun Project</text></svg>