<svg xmlns="http://www.w3.org/2000/svg" viewBox="0 0 60 75" x="0px" y="0px"><title>Food and Drink - 030 - Groceries</title><path d="M39.99,20.85626a2.731,2.731,0,0,1,1.3645,1.12518.7746.7746,0,0,0,1.291,0A2.7442,2.7442,0,0,1,46.86792,21.39L48,20.03375V14a4.00427,4.00427,0,0,0-4-4H40a4.00427,4.00427,0,0,0-4,4v.09674A7.88854,7.88854,0,0,1,39.99,20.85626Z"/><path d="M44,4h1V3.00244a1,1,0,0,0-.99951-1l-4-.002a1,1,0,0,0-1.00049,1V4h5Z"/><path d="M23.35449,21.98145a.741.741,0,0,0,.7627.3186A7.81468,7.81468,0,0,1,26,15.72974V9a3,3,0,0,0-6,0V20.86035a2.67551,2.67551,0,0,1,3.35449,1.12109ZM21.293,12.293l1-1A.99989.99989,0,0,1,23.707,12.707l-1,1A.99989.99989,0,0,1,21.293,12.293Zm0,4,1-1A.99989.99989,0,0,1,23.707,16.707l-1,1A.99989.99989,0,0,1,21.293,16.293Z"/><path d="M41,7V8h2V7a1,1,0,0,0-2,0Z"/><path d="M47.57715,23.66064a2.82476,2.82476,0,0,0-.25586.21875c-.00928.00549-.01978.00507-.02905.01019a.96868.96868,0,0,1-.2085.07306.77806.77806,0,0,1-.70532-.06134.96957.96957,0,0,1-.18213-.09882c-.00842-.00665-.019-.00793-.02734-.01489a2.72974,2.72974,0,0,0-.21875-.25586l-.30957-.52a.7517.7517,0,0,0-1.28418.00391,2.7476,2.7476,0,0,1-4.71094.00293.7746.7746,0,0,0-1.291,0,2.74743,2.74743,0,0,1-4.709,0,.7746.7746,0,0,0-1.291,0,2.74743,2.74743,0,0,1-4.709,0,.7746.7746,0,0,0-1.291,0,2.74743,2.74743,0,0,1-4.709,0,.7746.7746,0,0,0-1.291,0,2.76208,2.76208,0,0,1-.62378.69385.99052.99052,0,0,1-.2522.189,2.7171,2.7171,0,0,1-3.833-.88287.7746.7746,0,0,0-1.291,0l-.30469.51318a.94841.94841,0,0,1-.11475.12622.93977.93977,0,0,1-.104.12964c-.0083.007-.01892.00824-.02734.01489a.96957.96957,0,0,1-.18213.09882,1.00035,1.00035,0,0,1-.16724.07874.99267.99267,0,0,1-.17078.0174.98946.98946,0,0,1-.20715.01178.999.999,0,0,1-.16016-.04657.96868.96868,0,0,1-.2085-.07306c-.00928-.00513-.01978-.0047-.02905-.01019a.94312.94312,0,0,1-.12756-.11566.93978.93978,0,0,1-.1283-.10309L10,20.7583V51.55176a3.00653,3.00653,0,0,0,.69531,1.92041l2.27441,2.729A4.98575,4.98575,0,0,0,16.81055,58H43.18945a4.98575,4.98575,0,0,0,3.84082-1.79883l2.27441-2.729A3.00653,3.00653,0,0,0,50,51.55176V20.7583ZM14,51a1,1,0,0,1-2,0V29a1,1,0,0,1,2,0Zm34,0a1,1,0,0,1-2,0V29a1,1,0,0,1,2,0Z"/><path d="M29.35449,21.98145a.7746.7746,0,0,0,1.291,0,2.74743,2.74743,0,0,1,4.709,0,.7746.7746,0,0,0,1.291,0,2.73065,2.73065,0,0,1,1.345-1.11719,5.9295,5.9295,0,0,0-3.41724-5.27979,6.08811,6.08811,0,0,0-6.85547,1.22119,5.93864,5.93864,0,0,0-1.71094,4.05188,2.67529,2.67529,0,0,1,3.34766,1.1239Z"/><path d="M15,20.6499a2.73583,2.73583,0,0,1,2.35449,1.33154A.74579.74579,0,0,0,18,22.32788V5a3,3,0,0,0-6,0V20.03375l1.13306,1.3573A2.72063,2.72063,0,0,1,15,20.6499ZM13.293,8.293l1-1A.99989.99989,0,0,1,15.707,8.707l-1,1A.99989.99989,0,0,1,13.293,8.293Zm0,4,1-1A.99989.99989,0,0,1,15.707,12.707l-1,1A.99989.99989,0,0,1,13.293,12.293Zm0,4,1-1A.99989.99989,0,0,1,15.707,16.707l-1,1A.99989.99989,0,0,1,13.293,16.293Z"/><text x="0" y="75" fill="#000000" font-size="5px" font-weight="bold" font-family="'Helvetica Neue', Helvetica, Arial-Unicode, Arial, Sans-serif">Created by Creaticca Creative Agency</text><text x="0" y="80" fill="#000000" font-size="5px" font-weight="bold" font-family="'Helvetica Neue', Helvetica, Arial-Unicode, Arial, Sans-serif">from the Noun Project</text></svg>