<svg xmlns="http://www.w3.org/2000/svg" xmlns:xlink="http://www.w3.org/1999/xlink" version="1.1" x="0px" y="0px" viewBox="0 0 96 120" enable-background="new 0 0 96 96" xml:space="preserve"><path d="M67.649,58.051l19.275-18.79L60.286,35.39c-0.162-0.022-0.305-0.126-0.376-0.272L48,10.98L36.088,35.117  c-0.072,0.146-0.213,0.25-0.376,0.272L9.075,39.261l19.273,18.79c0.118,0.113,0.172,0.279,0.145,0.441L23.941,85.02l23.826-12.523  c0.072-0.037,0.152-0.059,0.232-0.059s0.16,0.021,0.232,0.059L72.056,85.02l-4.551-26.527C67.478,58.33,67.532,58.164,67.649,58.051  z"/><text x="0" y="111" fill="#000000" font-size="5px" font-weight="bold" font-family="'Helvetica Neue', Helvetica, Arial-Unicode, Arial, Sans-serif">Created by coffeestudio10</text><text x="0" y="116" fill="#000000" font-size="5px" font-weight="bold" font-family="'Helvetica Neue', Helvetica, Arial-Unicode, Arial, Sans-serif">from the Noun Project</text></svg>