<svg xmlns="http://www.w3.org/2000/svg" xmlns:xlink="http://www.w3.org/1999/xlink" version="1.1" x="0px" y="0px" viewBox="0 0 1024 1280" style="enable-background:new 0 0 1024 1024;" xml:space="preserve"><g><path d="M923,803V230.6c0-9.8,0-19.6,0-29.4c-0.1-42.2-26-79-65.2-94.2c-15.1-5.8-30.7-6.1-46.4-6.1H205   c-2.6,0-5.2,0-7.7,0c-26.3,0.9-52.1,12.3-69.9,31.8c-16.7,18.5-26.2,42.2-26.4,67.1c0,2,0,4,0,6.1v607.1c0,3.2,0,6.5,0,9.7   c0,15.8,3.6,30.9,10.5,45.1c16.5,34.4,52.9,54.9,90.4,54.9c10.5,0,20.9,0,31.4,0H824c26.5-0.2,52.4-10.9,70.8-30   c17.9-18.5,28-43.3,28.2-69C923,817,923,810,923,803z M758,571c0,8.8-7.2,15-16,15H586v156c0,8.8-6.2,16-15,16H453   c-8.8,0-15-7.2-15-16V586H282c-8.8,0-16-6.2-16-15V453c0-8.8,7.2-15,16-15h156V282c0-8.8,6.2-16,15-16H571c8.8,0,15,7.2,15,16v156   h156c8.8,0,16,6.2,16,15V571z"/></g><text x="0" y="1039" fill="#000000" font-size="5px" font-weight="bold" font-family="'Helvetica Neue', Helvetica, Arial-Unicode, Arial, Sans-serif">Created by shashank singh</text><text x="0" y="1044" fill="#000000" font-size="5px" font-weight="bold" font-family="'Helvetica Neue', Helvetica, Arial-Unicode, Arial, Sans-serif">from the Noun Project</text></svg>