<svg xmlns="http://www.w3.org/2000/svg" data-name="Layer 1" viewBox="0 0 100 125" x="0px" y="0px"><title>Artboard 35</title><path d="M41.08,44.25l-5.57,3.36,4.25,39.9a9.68,9.68,0,1,1-19.3,0l4.25-39.9-5.57-3.36A8.54,8.54,0,0,1,15,36.64l1-32A2.75,2.75,0,0,1,18.78,2h0a2.75,2.75,0,0,1,2.75,2.65l.72,20.87a2.29,2.29,0,0,0,2,2.24,2.2,2.2,0,0,0,2.44-2.11l.72-20.89a2.75,2.75,0,1,1,5.5,0l.72,20.89A2.2,2.2,0,0,0,36,27.76a2.29,2.29,0,0,0,2-2.24L38.7,4.65A2.75,2.75,0,0,1,41.44,2h0a2.75,2.75,0,0,1,2.75,2.65l1,32A8.54,8.54,0,0,1,41.08,44.25ZM85,26.35C85,12.9,78.18,2,69.78,2S54.56,12.9,54.56,26.35c0,10.3,4,19,9.68,22.55L60.13,87.51a9.68,9.68,0,1,0,19.3,0L75.32,48.9C81,45.35,85,36.65,85,26.35Z"/><text x="0" y="115" fill="#000000" font-size="5px" font-weight="bold" font-family="'Helvetica Neue', Helvetica, Arial-Unicode, Arial, Sans-serif">Created by Gregor Cresnar</text><text x="0" y="120" fill="#000000" font-size="5px" font-weight="bold" font-family="'Helvetica Neue', Helvetica, Arial-Unicode, Arial, Sans-serif">from the Noun Project</text></svg>